<mxfile host="app.diagrams.net" modified="2020-10-22T14:01:31.956Z" agent="5.0 (Macintosh; Intel Mac OS X 10_15_7) AppleWebKit/537.36 (KHTML, like Gecko) Chrome/86.0.4240.80 Safari/537.36" etag="ocWoY19RVJ18QF_zT65-" version="13.8.1" type="github">
  <diagram id="eWeTiRapaMoUEzTP4dSG" name="Page-1">
    <mxGraphModel dx="1258" dy="1589" grid="1" gridSize="10" guides="1" tooltips="1" connect="1" arrows="1" fold="1" page="1" pageScale="1" pageWidth="850" pageHeight="1100" math="0" shadow="0">
      <root>
        <mxCell id="0" />
        <mxCell id="1" parent="0" />
        <mxCell id="_IksRpuk90q-67i_ylIm-1" value="CEO" style="rounded=0;whiteSpace=wrap;html=1;" vertex="1" parent="1">
          <mxGeometry x="380" y="173" width="120" height="50" as="geometry" />
        </mxCell>
        <mxCell id="_IksRpuk90q-67i_ylIm-2" value="CEO助理" style="rounded=0;whiteSpace=wrap;html=1;" vertex="1" parent="1">
          <mxGeometry x="570" y="210" width="120" height="50" as="geometry" />
        </mxCell>
        <mxCell id="_IksRpuk90q-67i_ylIm-3" value="业务中心" style="rounded=0;whiteSpace=wrap;html=1;" vertex="1" parent="1">
          <mxGeometry x="110" y="330" width="120" height="50" as="geometry" />
        </mxCell>
        <mxCell id="_IksRpuk90q-67i_ylIm-4" value="技术中心" style="rounded=0;whiteSpace=wrap;html=1;" vertex="1" parent="1">
          <mxGeometry x="290" y="330" width="120" height="50" as="geometry" />
        </mxCell>
        <mxCell id="_IksRpuk90q-67i_ylIm-5" value="HaaS中心" style="rounded=0;whiteSpace=wrap;html=1;" vertex="1" parent="1">
          <mxGeometry x="470" y="330" width="120" height="50" as="geometry" />
        </mxCell>
        <mxCell id="_IksRpuk90q-67i_ylIm-6" value="支持中心" style="rounded=0;whiteSpace=wrap;html=1;" vertex="1" parent="1">
          <mxGeometry x="650" y="330" width="120" height="50" as="geometry" />
        </mxCell>
        <mxCell id="_IksRpuk90q-67i_ylIm-10" value="" style="edgeStyle=elbowEdgeStyle;elbow=vertical;endArrow=none;html=1;entryX=0.5;entryY=0;entryDx=0;entryDy=0;exitX=0.5;exitY=1;exitDx=0;exitDy=0;endFill=0;" edge="1" parent="1" source="_IksRpuk90q-67i_ylIm-1" target="_IksRpuk90q-67i_ylIm-4">
          <mxGeometry width="50" height="50" relative="1" as="geometry">
            <mxPoint x="280" y="830" as="sourcePoint" />
            <mxPoint x="330" y="780" as="targetPoint" />
          </mxGeometry>
        </mxCell>
        <mxCell id="_IksRpuk90q-67i_ylIm-11" value="" style="edgeStyle=elbowEdgeStyle;elbow=vertical;endArrow=none;html=1;entryX=0.5;entryY=0;entryDx=0;entryDy=0;exitX=0.5;exitY=1;exitDx=0;exitDy=0;endFill=0;" edge="1" parent="1" source="_IksRpuk90q-67i_ylIm-1" target="_IksRpuk90q-67i_ylIm-5">
          <mxGeometry width="50" height="50" relative="1" as="geometry">
            <mxPoint x="280" y="830" as="sourcePoint" />
            <mxPoint x="330" y="780" as="targetPoint" />
          </mxGeometry>
        </mxCell>
        <mxCell id="_IksRpuk90q-67i_ylIm-12" value="" style="edgeStyle=elbowEdgeStyle;elbow=vertical;endArrow=none;html=1;entryX=0.5;entryY=0;entryDx=0;entryDy=0;exitX=0.5;exitY=1;exitDx=0;exitDy=0;endFill=0;" edge="1" parent="1" source="_IksRpuk90q-67i_ylIm-1" target="_IksRpuk90q-67i_ylIm-6">
          <mxGeometry width="50" height="50" relative="1" as="geometry">
            <mxPoint x="280" y="830" as="sourcePoint" />
            <mxPoint x="330" y="780" as="targetPoint" />
          </mxGeometry>
        </mxCell>
        <mxCell id="_IksRpuk90q-67i_ylIm-13" value="" style="edgeStyle=elbowEdgeStyle;elbow=vertical;endArrow=none;html=1;entryX=0.5;entryY=0;entryDx=0;entryDy=0;exitX=0.5;exitY=1;exitDx=0;exitDy=0;endFill=0;" edge="1" parent="1" source="_IksRpuk90q-67i_ylIm-1" target="_IksRpuk90q-67i_ylIm-3">
          <mxGeometry width="50" height="50" relative="1" as="geometry">
            <mxPoint x="280" y="830" as="sourcePoint" />
            <mxPoint x="330" y="780" as="targetPoint" />
          </mxGeometry>
        </mxCell>
        <mxCell id="_IksRpuk90q-67i_ylIm-14" value="" style="endArrow=none;html=1;entryX=0;entryY=0.5;entryDx=0;entryDy=0;endFill=0;" edge="1" parent="1" target="_IksRpuk90q-67i_ylIm-2">
          <mxGeometry width="50" height="50" relative="1" as="geometry">
            <mxPoint x="440" y="235" as="sourcePoint" />
            <mxPoint x="330" y="780" as="targetPoint" />
          </mxGeometry>
        </mxCell>
        <mxCell id="_IksRpuk90q-67i_ylIm-15" value="BD" style="rounded=0;whiteSpace=wrap;html=1;" vertex="1" parent="1">
          <mxGeometry x="190" y="400" width="80" height="30" as="geometry" />
        </mxCell>
        <mxCell id="_IksRpuk90q-67i_ylIm-16" value="资源衔接顾问" style="rounded=0;whiteSpace=wrap;html=1;" vertex="1" parent="1">
          <mxGeometry x="190" y="440" width="80" height="30" as="geometry" />
        </mxCell>
        <mxCell id="_IksRpuk90q-67i_ylIm-17" value="医疗资源顾问" style="rounded=0;whiteSpace=wrap;html=1;" vertex="1" parent="1">
          <mxGeometry x="190" y="480" width="80" height="30" as="geometry" />
        </mxCell>
        <mxCell id="_IksRpuk90q-67i_ylIm-18" value="市场研究分析师&lt;span style=&quot;color: rgba(0 , 0 , 0 , 0) ; font-family: monospace ; font-size: 0px&quot;&gt;%3CmxGraphModel%3E%3Croot%3E%3CmxCell%20id%3D%220%22%2F%3E%3CmxCell%20id%3D%221%22%20parent%3D%220%22%2F%3E%3CmxCell%20id%3D%222%22%20value%3D%22%E8%B5%84%E6%BA%90%E8%A1%94%E6%8E%A5%E9%A1%BE%E9%97%AE%22%20style%3D%22rounded%3D0%3BwhiteSpace%3Dwrap%3Bhtml%3D1%3B%22%20vertex%3D%221%22%20parent%3D%221%22%3E%3CmxGeometry%20x%3D%22190%22%20y%3D%22440%22%20width%3D%2280%22%20height%3D%2230%22%20as%3D%22geometry%22%2F%3E%3C%2FmxCell%3E%3C%2Froot%3E%3C%2FmxGraphModel%3E&lt;/span&gt;" style="rounded=0;whiteSpace=wrap;html=1;" vertex="1" parent="1">
          <mxGeometry x="190" y="520" width="80" height="30" as="geometry" />
        </mxCell>
        <mxCell id="_IksRpuk90q-67i_ylIm-19" value="客户成功经理" style="rounded=0;whiteSpace=wrap;html=1;" vertex="1" parent="1">
          <mxGeometry x="190" y="560" width="80" height="30" as="geometry" />
        </mxCell>
        <mxCell id="_IksRpuk90q-67i_ylIm-20" value="" style="edgeStyle=segmentEdgeStyle;endArrow=none;html=1;entryX=0.5;entryY=1;entryDx=0;entryDy=0;exitX=0;exitY=0.5;exitDx=0;exitDy=0;endFill=0;" edge="1" parent="1" source="_IksRpuk90q-67i_ylIm-15" target="_IksRpuk90q-67i_ylIm-3">
          <mxGeometry width="50" height="50" relative="1" as="geometry">
            <mxPoint x="280" y="830" as="sourcePoint" />
            <mxPoint x="330" y="780" as="targetPoint" />
          </mxGeometry>
        </mxCell>
        <mxCell id="_IksRpuk90q-67i_ylIm-21" value="" style="edgeStyle=segmentEdgeStyle;endArrow=none;html=1;entryX=0.5;entryY=1;entryDx=0;entryDy=0;exitX=0;exitY=0.5;exitDx=0;exitDy=0;endFill=0;" edge="1" parent="1" source="_IksRpuk90q-67i_ylIm-16" target="_IksRpuk90q-67i_ylIm-3">
          <mxGeometry width="50" height="50" relative="1" as="geometry">
            <mxPoint x="280" y="830" as="sourcePoint" />
            <mxPoint x="330" y="780" as="targetPoint" />
          </mxGeometry>
        </mxCell>
        <mxCell id="_IksRpuk90q-67i_ylIm-22" value="" style="edgeStyle=segmentEdgeStyle;endArrow=none;html=1;entryX=0.5;entryY=1;entryDx=0;entryDy=0;exitX=0;exitY=0.5;exitDx=0;exitDy=0;endFill=0;" edge="1" parent="1" source="_IksRpuk90q-67i_ylIm-17" target="_IksRpuk90q-67i_ylIm-3">
          <mxGeometry width="50" height="50" relative="1" as="geometry">
            <mxPoint x="280" y="830" as="sourcePoint" />
            <mxPoint x="330" y="780" as="targetPoint" />
          </mxGeometry>
        </mxCell>
        <mxCell id="_IksRpuk90q-67i_ylIm-23" value="" style="edgeStyle=segmentEdgeStyle;endArrow=none;html=1;entryX=0.5;entryY=1;entryDx=0;entryDy=0;exitX=0;exitY=0.5;exitDx=0;exitDy=0;endFill=0;" edge="1" parent="1" source="_IksRpuk90q-67i_ylIm-19" target="_IksRpuk90q-67i_ylIm-3">
          <mxGeometry width="50" height="50" relative="1" as="geometry">
            <mxPoint x="280" y="830" as="sourcePoint" />
            <mxPoint x="330" y="780" as="targetPoint" />
          </mxGeometry>
        </mxCell>
        <mxCell id="_IksRpuk90q-67i_ylIm-24" value="" style="edgeStyle=segmentEdgeStyle;endArrow=none;html=1;entryX=0.5;entryY=1;entryDx=0;entryDy=0;exitX=0;exitY=0.5;exitDx=0;exitDy=0;endFill=0;" edge="1" parent="1" source="_IksRpuk90q-67i_ylIm-18" target="_IksRpuk90q-67i_ylIm-3">
          <mxGeometry width="50" height="50" relative="1" as="geometry">
            <mxPoint x="280" y="830" as="sourcePoint" />
            <mxPoint x="330" y="780" as="targetPoint" />
          </mxGeometry>
        </mxCell>
        <mxCell id="_IksRpuk90q-67i_ylIm-25" value="算法工程师" style="rounded=0;whiteSpace=wrap;html=1;" vertex="1" parent="1">
          <mxGeometry x="385" y="440" width="80" height="30" as="geometry" />
        </mxCell>
        <mxCell id="_IksRpuk90q-67i_ylIm-26" value="产品总监" style="rounded=0;whiteSpace=wrap;html=1;" vertex="1" parent="1">
          <mxGeometry x="385" y="480" width="80" height="30" as="geometry" />
        </mxCell>
        <mxCell id="_IksRpuk90q-67i_ylIm-27" value="架构师" style="rounded=0;whiteSpace=wrap;html=1;" vertex="1" parent="1">
          <mxGeometry x="385" y="520" width="80" height="30" as="geometry" />
        </mxCell>
        <mxCell id="_IksRpuk90q-67i_ylIm-28" value="前端工程师" style="rounded=0;whiteSpace=wrap;html=1;" vertex="1" parent="1">
          <mxGeometry x="385" y="560" width="80" height="30" as="geometry" />
        </mxCell>
        <mxCell id="_IksRpuk90q-67i_ylIm-29" value="后端工程师" style="rounded=0;whiteSpace=wrap;html=1;" vertex="1" parent="1">
          <mxGeometry x="385" y="600" width="80" height="30" as="geometry" />
        </mxCell>
        <mxCell id="_IksRpuk90q-67i_ylIm-30" value="UI设计师" style="rounded=0;whiteSpace=wrap;html=1;" vertex="1" parent="1">
          <mxGeometry x="385" y="640" width="80" height="30" as="geometry" />
        </mxCell>
        <mxCell id="_IksRpuk90q-67i_ylIm-31" value="测试工程师" style="rounded=0;whiteSpace=wrap;html=1;" vertex="1" parent="1">
          <mxGeometry x="385" y="680" width="80" height="30" as="geometry" />
        </mxCell>
        <mxCell id="_IksRpuk90q-67i_ylIm-32" value="运维工程师" style="rounded=0;whiteSpace=wrap;html=1;" vertex="1" parent="1">
          <mxGeometry x="385" y="720" width="80" height="30" as="geometry" />
        </mxCell>
        <mxCell id="_IksRpuk90q-67i_ylIm-33" value="" style="edgeStyle=segmentEdgeStyle;endArrow=none;html=1;entryX=0.5;entryY=1;entryDx=0;entryDy=0;exitX=0;exitY=0.5;exitDx=0;exitDy=0;endFill=0;" edge="1" parent="1" source="_IksRpuk90q-67i_ylIm-26" target="_IksRpuk90q-67i_ylIm-4">
          <mxGeometry width="50" height="50" relative="1" as="geometry">
            <mxPoint x="200" y="425" as="sourcePoint" />
            <mxPoint x="180" y="390" as="targetPoint" />
          </mxGeometry>
        </mxCell>
        <mxCell id="_IksRpuk90q-67i_ylIm-34" value="" style="edgeStyle=segmentEdgeStyle;endArrow=none;html=1;entryX=0.5;entryY=1;entryDx=0;entryDy=0;exitX=0;exitY=0.5;exitDx=0;exitDy=0;endFill=0;" edge="1" parent="1" source="_IksRpuk90q-67i_ylIm-27" target="_IksRpuk90q-67i_ylIm-4">
          <mxGeometry width="50" height="50" relative="1" as="geometry">
            <mxPoint x="395" y="425" as="sourcePoint" />
            <mxPoint x="360" y="390" as="targetPoint" />
          </mxGeometry>
        </mxCell>
        <mxCell id="_IksRpuk90q-67i_ylIm-35" value="" style="edgeStyle=segmentEdgeStyle;endArrow=none;html=1;entryX=0.5;entryY=1;entryDx=0;entryDy=0;exitX=0;exitY=0.5;exitDx=0;exitDy=0;endFill=0;" edge="1" parent="1" source="_IksRpuk90q-67i_ylIm-25" target="_IksRpuk90q-67i_ylIm-4">
          <mxGeometry width="50" height="50" relative="1" as="geometry">
            <mxPoint x="395" y="465" as="sourcePoint" />
            <mxPoint x="360" y="390" as="targetPoint" />
          </mxGeometry>
        </mxCell>
        <mxCell id="_IksRpuk90q-67i_ylIm-36" value="" style="edgeStyle=segmentEdgeStyle;endArrow=none;html=1;entryX=0.5;entryY=1;entryDx=0;entryDy=0;exitX=0;exitY=0.5;exitDx=0;exitDy=0;endFill=0;" edge="1" parent="1" source="_IksRpuk90q-67i_ylIm-28" target="_IksRpuk90q-67i_ylIm-4">
          <mxGeometry width="50" height="50" relative="1" as="geometry">
            <mxPoint x="395" y="505" as="sourcePoint" />
            <mxPoint x="360" y="390" as="targetPoint" />
          </mxGeometry>
        </mxCell>
        <mxCell id="_IksRpuk90q-67i_ylIm-37" value="" style="edgeStyle=segmentEdgeStyle;endArrow=none;html=1;entryX=0.5;entryY=1;entryDx=0;entryDy=0;exitX=0;exitY=0.5;exitDx=0;exitDy=0;endFill=0;" edge="1" parent="1" source="_IksRpuk90q-67i_ylIm-29" target="_IksRpuk90q-67i_ylIm-4">
          <mxGeometry width="50" height="50" relative="1" as="geometry">
            <mxPoint x="395" y="545" as="sourcePoint" />
            <mxPoint x="360" y="390" as="targetPoint" />
          </mxGeometry>
        </mxCell>
        <mxCell id="_IksRpuk90q-67i_ylIm-38" value="" style="edgeStyle=segmentEdgeStyle;endArrow=none;html=1;entryX=0.5;entryY=1;entryDx=0;entryDy=0;exitX=0;exitY=0.5;exitDx=0;exitDy=0;endFill=0;" edge="1" parent="1" source="_IksRpuk90q-67i_ylIm-30" target="_IksRpuk90q-67i_ylIm-4">
          <mxGeometry width="50" height="50" relative="1" as="geometry">
            <mxPoint x="395" y="585" as="sourcePoint" />
            <mxPoint x="360" y="390" as="targetPoint" />
          </mxGeometry>
        </mxCell>
        <mxCell id="_IksRpuk90q-67i_ylIm-39" value="" style="edgeStyle=segmentEdgeStyle;endArrow=none;html=1;entryX=0.5;entryY=1;entryDx=0;entryDy=0;exitX=0;exitY=0.5;exitDx=0;exitDy=0;endFill=0;" edge="1" parent="1" source="_IksRpuk90q-67i_ylIm-31" target="_IksRpuk90q-67i_ylIm-4">
          <mxGeometry width="50" height="50" relative="1" as="geometry">
            <mxPoint x="395" y="625" as="sourcePoint" />
            <mxPoint x="360" y="390" as="targetPoint" />
          </mxGeometry>
        </mxCell>
        <mxCell id="_IksRpuk90q-67i_ylIm-40" value="" style="edgeStyle=segmentEdgeStyle;endArrow=none;html=1;entryX=0.5;entryY=1;entryDx=0;entryDy=0;exitX=0;exitY=0.5;exitDx=0;exitDy=0;endFill=0;" edge="1" parent="1" source="_IksRpuk90q-67i_ylIm-32" target="_IksRpuk90q-67i_ylIm-4">
          <mxGeometry width="50" height="50" relative="1" as="geometry">
            <mxPoint x="395" y="665" as="sourcePoint" />
            <mxPoint x="360" y="390" as="targetPoint" />
          </mxGeometry>
        </mxCell>
        <mxCell id="_IksRpuk90q-67i_ylIm-41" value="数据产品经理" style="rounded=0;whiteSpace=wrap;html=1;" vertex="1" parent="1">
          <mxGeometry x="565" y="480" width="80" height="30" as="geometry" />
        </mxCell>
        <mxCell id="_IksRpuk90q-67i_ylIm-42" value="用户运营专员" style="rounded=0;whiteSpace=wrap;html=1;" vertex="1" parent="1">
          <mxGeometry x="565" y="400" width="80" height="30" as="geometry" />
        </mxCell>
        <mxCell id="_IksRpuk90q-67i_ylIm-43" value="健康管理专家" style="rounded=0;whiteSpace=wrap;html=1;" vertex="1" parent="1">
          <mxGeometry x="565" y="440" width="80" height="30" as="geometry" />
        </mxCell>
        <mxCell id="_IksRpuk90q-67i_ylIm-44" value="医学产品经理" style="rounded=0;whiteSpace=wrap;html=1;" vertex="1" parent="1">
          <mxGeometry x="565" y="520" width="80" height="30" as="geometry" />
        </mxCell>
        <mxCell id="_IksRpuk90q-67i_ylIm-45" value="用户研究员" style="rounded=0;whiteSpace=wrap;html=1;" vertex="1" parent="1">
          <mxGeometry x="565" y="560" width="80" height="30" as="geometry" />
        </mxCell>
        <mxCell id="_IksRpuk90q-67i_ylIm-46" value="临床协调员" style="rounded=0;whiteSpace=wrap;html=1;" vertex="1" parent="1">
          <mxGeometry x="565" y="600" width="80" height="30" as="geometry" />
        </mxCell>
        <mxCell id="_IksRpuk90q-67i_ylIm-47" value="生物统计师" style="rounded=0;whiteSpace=wrap;html=1;" vertex="1" parent="1">
          <mxGeometry x="565" y="640" width="80" height="30" as="geometry" />
        </mxCell>
        <mxCell id="_IksRpuk90q-67i_ylIm-48" value="临床Coach" style="rounded=0;whiteSpace=wrap;html=1;" vertex="1" parent="1">
          <mxGeometry x="565" y="680" width="80" height="30" as="geometry" />
        </mxCell>
        <mxCell id="_IksRpuk90q-67i_ylIm-49" value="" style="edgeStyle=segmentEdgeStyle;endArrow=none;html=1;entryX=0.5;entryY=1;entryDx=0;entryDy=0;exitX=0;exitY=0.5;exitDx=0;exitDy=0;endFill=0;" edge="1" parent="1" source="_IksRpuk90q-67i_ylIm-42">
          <mxGeometry width="50" height="50" relative="1" as="geometry">
            <mxPoint x="380" y="425" as="sourcePoint" />
            <mxPoint x="530" y="380" as="targetPoint" />
          </mxGeometry>
        </mxCell>
        <mxCell id="_IksRpuk90q-67i_ylIm-50" value="" style="edgeStyle=segmentEdgeStyle;endArrow=none;html=1;entryX=0.5;entryY=1;entryDx=0;entryDy=0;exitX=0;exitY=0.5;exitDx=0;exitDy=0;endFill=0;" edge="1" parent="1" source="_IksRpuk90q-67i_ylIm-43">
          <mxGeometry width="50" height="50" relative="1" as="geometry">
            <mxPoint x="575" y="425" as="sourcePoint" />
            <mxPoint x="530" y="380" as="targetPoint" />
          </mxGeometry>
        </mxCell>
        <mxCell id="_IksRpuk90q-67i_ylIm-51" value="" style="edgeStyle=segmentEdgeStyle;endArrow=none;html=1;entryX=0.5;entryY=1;entryDx=0;entryDy=0;exitX=0;exitY=0.5;exitDx=0;exitDy=0;endFill=0;" edge="1" parent="1" source="_IksRpuk90q-67i_ylIm-41">
          <mxGeometry width="50" height="50" relative="1" as="geometry">
            <mxPoint x="575" y="465" as="sourcePoint" />
            <mxPoint x="530" y="380" as="targetPoint" />
          </mxGeometry>
        </mxCell>
        <mxCell id="_IksRpuk90q-67i_ylIm-52" value="" style="edgeStyle=segmentEdgeStyle;endArrow=none;html=1;entryX=0.5;entryY=1;entryDx=0;entryDy=0;exitX=0;exitY=0.5;exitDx=0;exitDy=0;endFill=0;" edge="1" parent="1" source="_IksRpuk90q-67i_ylIm-44">
          <mxGeometry width="50" height="50" relative="1" as="geometry">
            <mxPoint x="575" y="505" as="sourcePoint" />
            <mxPoint x="530" y="380" as="targetPoint" />
          </mxGeometry>
        </mxCell>
        <mxCell id="_IksRpuk90q-67i_ylIm-53" value="" style="edgeStyle=segmentEdgeStyle;endArrow=none;html=1;entryX=0.5;entryY=1;entryDx=0;entryDy=0;exitX=0;exitY=0.5;exitDx=0;exitDy=0;endFill=0;" edge="1" parent="1" source="_IksRpuk90q-67i_ylIm-45">
          <mxGeometry width="50" height="50" relative="1" as="geometry">
            <mxPoint x="575" y="545" as="sourcePoint" />
            <mxPoint x="530" y="380" as="targetPoint" />
          </mxGeometry>
        </mxCell>
        <mxCell id="_IksRpuk90q-67i_ylIm-54" value="" style="edgeStyle=segmentEdgeStyle;endArrow=none;html=1;entryX=0.5;entryY=1;entryDx=0;entryDy=0;exitX=0;exitY=0.5;exitDx=0;exitDy=0;endFill=0;" edge="1" parent="1" source="_IksRpuk90q-67i_ylIm-46">
          <mxGeometry width="50" height="50" relative="1" as="geometry">
            <mxPoint x="575" y="585" as="sourcePoint" />
            <mxPoint x="530" y="380" as="targetPoint" />
          </mxGeometry>
        </mxCell>
        <mxCell id="_IksRpuk90q-67i_ylIm-55" value="" style="edgeStyle=segmentEdgeStyle;endArrow=none;html=1;entryX=0.5;entryY=1;entryDx=0;entryDy=0;exitX=0;exitY=0.5;exitDx=0;exitDy=0;endFill=0;" edge="1" parent="1" source="_IksRpuk90q-67i_ylIm-47">
          <mxGeometry width="50" height="50" relative="1" as="geometry">
            <mxPoint x="575" y="625" as="sourcePoint" />
            <mxPoint x="530" y="380" as="targetPoint" />
          </mxGeometry>
        </mxCell>
        <mxCell id="_IksRpuk90q-67i_ylIm-56" value="" style="edgeStyle=segmentEdgeStyle;endArrow=none;html=1;entryX=0.5;entryY=1;entryDx=0;entryDy=0;exitX=0;exitY=0.5;exitDx=0;exitDy=0;endFill=0;" edge="1" parent="1" source="_IksRpuk90q-67i_ylIm-48">
          <mxGeometry width="50" height="50" relative="1" as="geometry">
            <mxPoint x="575" y="665" as="sourcePoint" />
            <mxPoint x="530" y="380" as="targetPoint" />
          </mxGeometry>
        </mxCell>
        <mxCell id="_IksRpuk90q-67i_ylIm-57" value="财务" style="rounded=0;whiteSpace=wrap;html=1;" vertex="1" parent="1">
          <mxGeometry x="745" y="480" width="80" height="30" as="geometry" />
        </mxCell>
        <mxCell id="_IksRpuk90q-67i_ylIm-58" value="人力资源" style="rounded=0;whiteSpace=wrap;html=1;" vertex="1" parent="1">
          <mxGeometry x="745" y="400" width="80" height="30" as="geometry" />
        </mxCell>
        <mxCell id="_IksRpuk90q-67i_ylIm-59" value="行政" style="rounded=0;whiteSpace=wrap;html=1;" vertex="1" parent="1">
          <mxGeometry x="745" y="440" width="80" height="30" as="geometry" />
        </mxCell>
        <mxCell id="_IksRpuk90q-67i_ylIm-60" value="法务" style="rounded=0;whiteSpace=wrap;html=1;" vertex="1" parent="1">
          <mxGeometry x="745" y="520" width="80" height="30" as="geometry" />
        </mxCell>
        <mxCell id="_IksRpuk90q-67i_ylIm-61" value="" style="edgeStyle=segmentEdgeStyle;endArrow=none;html=1;entryX=0.5;entryY=1;entryDx=0;entryDy=0;exitX=0;exitY=0.5;exitDx=0;exitDy=0;endFill=0;" edge="1" parent="1" source="_IksRpuk90q-67i_ylIm-58">
          <mxGeometry width="50" height="50" relative="1" as="geometry">
            <mxPoint x="560" y="425" as="sourcePoint" />
            <mxPoint x="710" y="380" as="targetPoint" />
          </mxGeometry>
        </mxCell>
        <mxCell id="_IksRpuk90q-67i_ylIm-62" value="" style="edgeStyle=segmentEdgeStyle;endArrow=none;html=1;entryX=0.5;entryY=1;entryDx=0;entryDy=0;exitX=0;exitY=0.5;exitDx=0;exitDy=0;endFill=0;" edge="1" parent="1" source="_IksRpuk90q-67i_ylIm-59">
          <mxGeometry width="50" height="50" relative="1" as="geometry">
            <mxPoint x="755" y="425" as="sourcePoint" />
            <mxPoint x="710" y="380" as="targetPoint" />
          </mxGeometry>
        </mxCell>
        <mxCell id="_IksRpuk90q-67i_ylIm-63" value="" style="edgeStyle=segmentEdgeStyle;endArrow=none;html=1;entryX=0.5;entryY=1;entryDx=0;entryDy=0;exitX=0;exitY=0.5;exitDx=0;exitDy=0;endFill=0;" edge="1" parent="1" source="_IksRpuk90q-67i_ylIm-57">
          <mxGeometry width="50" height="50" relative="1" as="geometry">
            <mxPoint x="755" y="465" as="sourcePoint" />
            <mxPoint x="710" y="380" as="targetPoint" />
          </mxGeometry>
        </mxCell>
        <mxCell id="_IksRpuk90q-67i_ylIm-64" value="" style="edgeStyle=segmentEdgeStyle;endArrow=none;html=1;entryX=0.5;entryY=1;entryDx=0;entryDy=0;exitX=0;exitY=0.5;exitDx=0;exitDy=0;endFill=0;" edge="1" parent="1" source="_IksRpuk90q-67i_ylIm-60">
          <mxGeometry width="50" height="50" relative="1" as="geometry">
            <mxPoint x="755" y="505" as="sourcePoint" />
            <mxPoint x="710" y="380" as="targetPoint" />
          </mxGeometry>
        </mxCell>
        <mxCell id="_IksRpuk90q-67i_ylIm-65" value="算法总监" style="rounded=0;whiteSpace=wrap;html=1;" vertex="1" parent="1">
          <mxGeometry x="385" y="400" width="80" height="30" as="geometry" />
        </mxCell>
        <mxCell id="_IksRpuk90q-67i_ylIm-66" value="" style="edgeStyle=segmentEdgeStyle;endArrow=none;html=1;entryX=0.5;entryY=1;entryDx=0;entryDy=0;exitX=0;exitY=0.5;exitDx=0;exitDy=0;endFill=0;" edge="1" parent="1" source="_IksRpuk90q-67i_ylIm-65" target="_IksRpuk90q-67i_ylIm-4">
          <mxGeometry width="50" height="50" relative="1" as="geometry">
            <mxPoint x="395" y="745" as="sourcePoint" />
            <mxPoint x="360" y="390" as="targetPoint" />
          </mxGeometry>
        </mxCell>
      </root>
    </mxGraphModel>
  </diagram>
</mxfile>
